<?xml version="1.0" encoding="utf-8"?><svg xmlns="http://www.w3.org/2000/svg" viewBox="0 0 124 94"><path class="top-triangle" d="M36.4 1.3l24.7 24.6L85.7 1.3H36.4z" fill="#999"/><path class="bottom-m" d="M61.3 40.7l16.3-16.8v26.7H44.5V23.9l16.8 16.8z" fill="#1f1f1f"/><path class="marsella" fill="#fff" d="M9.2 72.5L3.8 60.8v9.3c0 .9.1 1.4.3 1.6.3.3.7.4 1.2.4h.5v.4H1v-.4h.5c.6 0 1-.2 1.3-.5.2-.2.2-.7.2-1.5V61c0-.6-.1-1.1-.2-1.3-.1-.2-.3-.4-.5-.5-.3-.1-.7-.2-1.2-.2v-.4H5l5 10.9 5-10.9h3.9v.4h-.5c-.6 0-1 .2-1.3.5-.2.2-.2.7-.2 1.5v9.1c0 .9.1 1.4.3 1.6.3.3.7.4 1.2.4h.5v.4H13v-.4h.5c.6 0 1-.2 1.3-.5.2-.2.2-.7.2-1.5v-9.3L9.6 72.5h-.4zm21.3-4.7h-5.4l-.9 2.2c-.2.5-.3.9-.3 1.2 0 .2.1.4.3.6s.6.3 1.3.3v.4h-4.4v-.4c.6-.1 1-.2 1.1-.4.3-.3.7-1 1.2-2l4.9-11.4h.4l4.8 11.6c.4.9.7 1.5 1.1 1.8.3.3.8.4 1.3.5v.4h-5.6v-.4c.6 0 .9-.1 1.1-.3.2-.2.3-.3.3-.6s-.1-.8-.4-1.4l-.8-2.1zm-.3-.7l-2.4-5.6-2.4 5.6h4.8zm21.6 5.4h-3.7L43.4 66h-1.5v4c0 .9.1 1.4.3 1.6.3.3.6.5 1.2.5h.5v.4h-6v-.4h.5c.6 0 1-.2 1.3-.6.1-.2.2-.7.2-1.5v-9c0-.9-.1-1.4-.3-1.6-.3-.3-.7-.5-1.2-.5h-.5v-.3H43c1.5 0 2.6.1 3.3.3.7.2 1.3.6 1.8 1.2s.7 1.3.7 2.1c0 .9-.3 1.6-.8 2.2-.6.6-1.4 1.1-2.6 1.3l2.9 4c.7.9 1.2 1.5 1.7 1.8s1.1.5 1.8.6v.4zm-9.9-7.2h.5c1.3 0 2.3-.3 3-.9s1-1.3 1-2.2c0-.9-.3-1.6-.8-2.1s-1.3-.8-2.2-.8c-.4 0-.9.1-1.6.2l.1 5.8zm20.5-7v4.8H62c-.1-.9-.3-1.7-.7-2.2-.3-.5-.8-1-1.4-1.3s-1.2-.5-1.8-.5c-.7 0-1.3.2-1.8.7-.5.4-.7.9-.7 1.5 0 .4.1.8.4 1.2.4.5 1.4 1.2 3 2.1 1.3.7 2.2 1.2 2.7 1.6s.8.8 1.1 1.3c.3.5.4 1 .4 1.6 0 1.1-.4 2-1.2 2.7-.8.8-1.9 1.1-3.2 1.1-.4 0-.8 0-1.1-.1-.2 0-.7-.2-1.3-.4-.7-.2-1.1-.3-1.3-.3-.2 0-.3.1-.4.2s-.2.3-.2.6h-.4v-4.8h.4c.2 1 .4 1.7.7 2.2.3.5.8.9 1.4 1.2s1.3.5 2 .5c.9 0 1.5-.2 2-.7s.7-1 .7-1.6c0-.3-.1-.7-.3-1-.2-.3-.5-.7-.9-1-.3-.2-1-.6-2.2-1.3-1.2-.7-2-1.2-2.5-1.6s-.9-.8-1.1-1.3-.4-1-.4-1.6c0-1 .4-1.9 1.1-2.6.8-.7 1.7-1.1 2.9-1.1.7 0 1.5.2 2.3.5.4.2.7.3.8.3.2 0 .3-.1.4-.2s.2-.3.3-.6h.7v.1zm7.8 1v5.5h3.1c.8 0 1.3-.1 1.6-.4.4-.3.6-.9.6-1.7h.4v4.8h-.4c-.1-.7-.2-1.1-.3-1.3-.1-.2-.3-.4-.6-.6s-.7 0-1.3 0h-3.1v4.6c0 .6 0 1 .1 1.1l.3.3c.1.1.4.1.8.1h2.4c.8 0 1.4-.1 1.7-.2s.7-.3 1-.6c.4-.4.9-1.1 1.3-1.9h.4L77 72.5H66.3v-.4h.5c.3 0 .6-.1.9-.2.2-.1.4-.3.4-.5.1-.2.1-.7.1-1.3v-9c0-.9-.1-1.4-.3-1.6-.2-.3-.7-.4-1.2-.4h-.4v-.5H77l.2 3h-.4c-.1-.7-.3-1.2-.5-1.5s-.4-.5-.8-.6c-.3-.1-.8-.2-1.4-.2h-3.9zm21.9 9.3l.3.1-1.2 3.8H80.4v-.4h.5c.6 0 1-.2 1.3-.6.1-.2.2-.7.2-1.5v-9c0-.9-.1-1.4-.3-1.6-.3-.3-.7-.5-1.2-.5h-.5v-.3h6.3v.4c-.7 0-1.3.1-1.6.2-.3.1-.5.3-.6.5s-.2.7-.2 1.6V70c0 .6.1 1 .2 1.2.1.1.2.2.4.3s.7.1 1.6.1h1c1.1 0 1.8-.1 2.2-.2.4-.2.8-.4 1.2-.8.5-.5.8-1.1 1.2-2zm13.7 0l.3.1-1.2 3.8H94.1v-.4h.5c.6 0 1-.2 1.3-.6.1-.2.2-.7.2-1.5v-9c0-.9-.1-1.4-.3-1.6-.3-.3-.7-.5-1.2-.5h-.5v-.3h6.3v.4c-.7 0-1.3.1-1.6.2-.3.1-.5.3-.6.5s-.2.7-.2 1.6V70c0 .6.1 1 .2 1.2.1.1.2.2.4.3s.7.1 1.6.1h1c1.1 0 1.8-.1 2.2-.2.4-.2.8-.4 1.2-.8.5-.5.9-1.1 1.2-2zm11.2-.8h-5.4l-.9 2.2c-.2.5-.3.9-.3 1.2 0 .2.1.4.3.6s.6.3 1.3.3v.4h-4.4v-.4c.6-.1 1-.2 1.1-.4.3-.3.7-1 1.2-2l4.9-11.4h.4l4.8 11.6c.4.9.7 1.5 1.1 1.8.3.3.8.4 1.3.5v.4h-5.5v-.4c.6 0 .9-.1 1.1-.3.2-.2.3-.3.3-.6s-.1-.8-.4-1.4l-.9-2.1zm-.3-.7l-2.4-5.6-2.4 5.6h4.8z"/><path class="line" d="M1 77.9h121.5" fill="none" stroke="#fff" stroke-width=".75" stroke-miterlimit="10"/><path class="properties" fill="#fff" d="M5.1 83.9c.9 0 1.7.2 2.1.7.5.5.7 1.2.7 2 0 .9-.2 1.6-.7 2s-1.2.7-2.1.7H2.2v3.8H1v-9.3h4.1v.1zm-.4 4.5c.7 0 1.2-.1 1.5-.4s.5-.7.5-1.3c0-.6-.2-1-.5-1.3s-.8-.4-1.5-.4H2.3v3.4h2.4zm14-4.5c.9 0 1.6.2 2.1.7.5.4.8 1 .8 1.8 0 .6-.1 1.1-.4 1.5-.3.4-.7.7-1.2.9.3.1.5.1.7.3.2.1.3.3.4.4.1.2.2.4.2.6s.1.4.1.7v.7c0 .2 0 .5.1.7 0 .2.1.4.2.6.1.2.2.4.3.5h-1.4c-.1-.1-.1-.2-.2-.4 0-.2-.1-.4-.1-.6v-.7c0-.2 0-.5-.1-.7 0-.2-.1-.4-.1-.6-.1-.2-.1-.4-.2-.5-.1-.2-.3-.3-.4-.4-.2-.1-.4-.1-.7-.1h-3v4h-1.5V84l4.4-.1zm.3 4.2c.3 0 .5-.1.7-.3.2-.1.4-.3.5-.5s.2-.5.2-.8c0-.5-.1-.9-.4-1.2-.3-.3-.7-.4-1.3-.4h-3.1v3.3h2.6c.2 0 .5 0 .8-.1zm8.9-1.4c.2-.6.5-1.1.8-1.6.4-.5.8-.8 1.4-1.1s1.2-.4 1.9-.4 1.4.1 1.9.4 1 .6 1.4 1.1.7 1 .8 1.6c.2.6.3 1.2.3 1.8s-.1 1.2-.3 1.8c-.2.6-.5 1.1-.8 1.6-.4.5-.8.8-1.4 1.1s-1.2.4-1.9.4-1.4-.1-1.9-.4-1-.6-1.4-1.1-.7-1-.8-1.6c-.2-.6-.3-1.2-.3-1.8s.1-1.2.3-1.8zM29 90c.1.5.3.9.6 1.2.3.4.6.7 1 .9.4.2.9.3 1.5.3s1.1-.1 1.5-.3c.4-.2.7-.5 1-.9s.5-.8.6-1.2c.1-.5.2-.9.2-1.4s-.1-.9-.2-1.4c-.1-.5-.3-.9-.6-1.2-.3-.4-.6-.7-1-.9-.4-.2-.9-.3-1.5-.3s-1.1.1-1.5.3c-.4.2-.7.5-1 .9s-.5.8-.6 1.2c-.1.5-.2.9-.2 1.4 0 .4.1.9.2 1.4zm18-6.1c.9 0 1.7.2 2.1.7.5.5.7 1.2.7 2 0 .9-.2 1.6-.7 2-.5.5-1.2.7-2.1.7h-2.9v3.8h-1.2v-9.3H47v.1zm-.5 4.5c.7 0 1.2-.1 1.5-.4s.5-.7.5-1.3c0-.6-.2-1-.5-1.3s-.8-.4-1.5-.4h-2.4v3.4h2.4zm16.1-4.5v1h-5.2v3h4.9v1h-4.9v3.2h5.2v1h-6.5v-9.3h6.5v.1zm10.8 0c.9 0 1.6.2 2.1.7.5.4.8 1 .8 1.8 0 .6-.1 1.1-.4 1.5s-.7.7-1.2.9c.3.1.5.1.7.3.2.1.3.3.4.4.1.2.2.4.2.6s.1.4.1.7v.7c0 .2 0 .5.1.7 0 .2.1.4.2.6s.2.4.3.5h-1.4c-.1-.1-.1-.2-.2-.4 0-.2-.1-.4-.1-.6v-.7c0-.2 0-.5-.1-.7 0-.2-.1-.4-.1-.6-.1-.2-.1-.4-.2-.5-.1-.2-.3-.3-.4-.4-.2-.1-.4-.1-.7-.1h-3v4h-1.2V84l4.1-.1zm.3 4.2c.3 0 .5-.1.7-.3.2-.1.4-.3.5-.5s.2-.5.2-.8c0-.5-.1-.9-.4-1.2s-.7-.4-1.3-.4h-3.1v3.3h2.6c.2 0 .5 0 .8-.1zm7.9-3.1v-1h7.5v1H86v8.3h-1.2V85h-3.2zm14.6-1.1v9.3H95v-9.3h1.2zm13.4 0v1h-5.2v3h4.9v1h-4.9v3.2h5.2v1h-6.5v-9.3h6.5v.1zm11 1.3c-.4-.3-.9-.5-1.6-.5-.3 0-.5 0-.8.1s-.5.1-.7.3c-.2.1-.4.3-.5.5s-.2.5-.2.8.1.5.3.7.4.3.7.4.6.2 1 .3c.4.1.7.2 1.1.2.4.1.7.2 1.1.3.4.1.7.3 1 .5s.5.5.7.8.3.7.3 1.2-.1.9-.3 1.3-.5.6-.9.9c-.3.2-.7.4-1.2.5-.4.1-.9.2-1.3.2-.5 0-1-.1-1.5-.2s-.9-.3-1.2-.6c-.4-.3-.6-.6-.8-1s-.3-.9-.3-1.5h1.2c0 .4.1.7.2 1 .2.3.4.5.6.7.2.2.5.3.9.4.3.1.7.1 1 .1s.6 0 .8-.1c.3-.1.5-.1.8-.3.2-.1.4-.3.5-.5s.2-.5.2-.8-.1-.6-.3-.8c-.2-.2-.4-.4-.7-.5s-.6-.2-1-.3c-.4-.1-.7-.2-1.1-.2-.4-.1-.7-.2-1.1-.3-.4-.1-.7-.3-1-.4-.3-.2-.5-.4-.7-.7-.2-.3-.3-.6-.3-1.1s.1-.9.3-1.2c.2-.3.4-.6.8-.8.3-.2.7-.4 1.1-.5s.8-.2 1.2-.2c.5 0 .9.1 1.3.2s.8.3 1.1.5.6.6.7.9c.2.4.3.8.3 1.3h-1.2c.2-.8-.1-1.3-.5-1.6z"/></svg>