<?xml version="1.0" standalone="no"?>
<!DOCTYPE svg PUBLIC "-//W3C//DTD SVG 20010904//EN"
 "http://www.w3.org/TR/2001/REC-SVG-20010904/DTD/svg10.dtd">
<svg version="1.0" xmlns="http://www.w3.org/2000/svg"
 width="322.000000pt" height="322.000000pt" viewBox="0 0 322.000000 322.000000"
 preserveAspectRatio="xMidYMid meet">
<metadata>
Created by potrace 1.11, written by Peter Selinger 2001-2013
</metadata>
<g transform="translate(0.000000,322.000000) scale(0.100000,-0.100000)"
fill="#000000" stroke="none">
<path d="M5 3211 c7 -12 1541 -1542 1575 -1571 l24 -21 798 798 c439 439 798
799 798 800 0 2 -720 3 -1601 3 -992 0 -1598 -4 -1594 -9z"/>
<path d="M520 884 l0 -871 1077 1 1078 1 0 863 c0 651 -3 862 -12 862 -6 0
-13 -4 -15 -10 -1 -5 -106 -116 -233 -246 -258 -265 -294 -302 -590 -608
l-210 -216 -547 547 -548 548 0 -871z"/>
</g>
</svg>
